<?xml version="1.0" encoding="UTF-8" standalone="no"?>
<!-- Created with Inkscape (http://www.inkscape.org/) -->

<svg
   xmlns:dc="http://purl.org/dc/elements/1.1/"
   xmlns:cc="http://creativecommons.org/ns#"
   xmlns:rdf="http://www.w3.org/1999/02/22-rdf-syntax-ns#"
   xmlns:svg="http://www.w3.org/2000/svg"
   xmlns="http://www.w3.org/2000/svg"
   xmlns:xlink="http://www.w3.org/1999/xlink"
   xmlns:sodipodi="http://sodipodi.sourceforge.net/DTD/sodipodi-0.dtd"
   xmlns:inkscape="http://www.inkscape.org/namespaces/inkscape"
   width="500"
   height="500"
   viewBox="0 0 499.99998 499.99998"
   id="svg2"
   version="1.1"
   inkscape:version="0.91 r13725"
   sodipodi:docname="logo.svg">
  <defs
     id="defs4">
    <linearGradient
       inkscape:collect="always"
       id="linearGradient4807">
      <stop
         style="stop-color:#000000;stop-opacity:1;"
         offset="0"
         id="stop4809" />
      <stop
         style="stop-color:#000000;stop-opacity:0;"
         offset="1"
         id="stop4811" />
    </linearGradient>
    <linearGradient
       inkscape:collect="always"
       id="linearGradient4676">
      <stop
         style="stop-color:#000000;stop-opacity:1;"
         offset="0"
         id="stop4678" />
      <stop
         style="stop-color:#000000;stop-opacity:0;"
         offset="1"
         id="stop4680" />
    </linearGradient>
    <linearGradient
       y2="243.0769"
       y1="243.0769"
       x2="266.05341"
       x1="189.4046"
       id="SVGID_1_"
       gradientUnits="userSpaceOnUse"
       gradientTransform="matrix(0.81511473,0,0,0.81511473,55.037328,535.79692)">
      <stop
         id="stop4206"
         style="stop-color:#FFFFFF"
         offset="0.5" />
      <stop
         id="stop4208"
         style="stop-color:#EBEBEB"
         offset="0.5" />
    </linearGradient>
    <linearGradient
       id="linearGradient4415"
       inkscape:collect="always">
      <stop
         id="stop4417"
         offset="0"
         style="stop-color:#000000;stop-opacity:1" />
      <stop
         id="stop4419"
         offset="1"
         style="stop-color:#000000;stop-opacity:0" />
    </linearGradient>
    <linearGradient
       id="linearGradient4365"
       inkscape:collect="always">
      <stop
         id="stop4367"
         offset="0"
         style="stop-color:#fdc12f;stop-opacity:1" />
      <stop
         id="stop4369"
         offset="1"
         style="stop-color:#ffeb3b;stop-opacity:0;" />
    </linearGradient>
    <linearGradient
       gradientTransform="matrix(0.50497951,0,0,0.50497951,1238.4249,-211.77854)"
       gradientUnits="userSpaceOnUse"
       y2="402.1611"
       x2="319.38104"
       y1="-21.92351"
       x1="320"
       id="linearGradient4371"
       xlink:href="#linearGradient4365"
       inkscape:collect="always" />
    <linearGradient
       gradientTransform="matrix(0.53377671,0,0,0.53377671,1202.3839,-246.9447)"
       gradientUnits="userSpaceOnUse"
       y2="666.08264"
       x2="427.2995"
       y1="478.07648"
       x1="311.42856"
       id="linearGradient4421"
       xlink:href="#linearGradient4415"
       inkscape:collect="always" />
    <linearGradient
       inkscape:collect="always"
       xlink:href="#linearGradient4676"
       id="linearGradient4682"
       x1="279.28571"
       y1="281.42856"
       x2="345.71423"
       y2="344.28568"
       gradientUnits="userSpaceOnUse"
       gradientTransform="matrix(1.1434362,0,0,1.1434362,-34.646731,522.87407)" />
    <linearGradient
       inkscape:collect="always"
       xlink:href="#linearGradient4807"
       id="linearGradient4813"
       x1="148.57141"
       y1="721.64777"
       x2="219.99997"
       y2="776.64777"
       gradientUnits="userSpaceOnUse"
       gradientTransform="matrix(1.1434362,0,0,1.1434362,-28.929551,-95.648881)" />
  </defs>
  <sodipodi:namedview
     id="base"
     pagecolor="#ffffff"
     bordercolor="#666666"
     borderopacity="1.0"
     inkscape:pageopacity="0.0"
     inkscape:pageshadow="2"
     inkscape:zoom="0.7"
     inkscape:cx="-26.827776"
     inkscape:cy="413.93509"
     inkscape:document-units="px"
     inkscape:current-layer="layer1"
     showgrid="false"
     units="px"
     inkscape:window-width="1280"
     inkscape:window-height="961"
     inkscape:window-x="-8"
     inkscape:window-y="-8"
     inkscape:window-maximized="1" />
  <metadata
     id="metadata7">
    <rdf:RDF>
      <cc:Work
         rdf:about="">
        <dc:format>image/svg+xml</dc:format>
        <dc:type
           rdf:resource="http://purl.org/dc/dcmitype/StillImage" />
        <dc:title />
      </cc:Work>
    </rdf:RDF>
  </metadata>
  <g
     inkscape:label="Camada 1"
     inkscape:groupmode="layer"
     id="layer1"
     transform="translate(0,-552.36209)">
    <path
       style="fill:none"
       inkscape:connector-curvature="0"
       d="m -937.29973,-527.39454 355.33003,0 0,355.33003 -355.33003,0 z"
       id="path4255" />
    <path
       style="fill:none"
       inkscape:connector-curvature="0"
       d="m 205.26547,-1393.215 355.33003,0 0,355.3301 -355.33003,0 z"
       id="path4255-3" />
    <circle
       style="opacity:1;fill:#ffffff;fill-opacity:1"
       id="path4303"
       cx="1310.0133"
       cy="-747.11957"
       r="11.199926"
       transform="matrix(0.89849017,0.43899364,-0.43899364,0.89849017,0,0)" />
    <path
       style="fill:none"
       inkscape:connector-curvature="0"
       d="m 1409.3688,-104.36739 90.6322,0 0,90.6322 -90.6322,0 z"
       id="path4217" />
    <path
       style="opacity:0.13999999;fill:url(#linearGradient4421);fill-opacity:1"
       d="m 1449.4462,79.91999 43.4647,-109.04296 127.3439,134.20672 -127.3439,112.85564 -195.9723,-131.9191 z"
       id="rect4404"
       inkscape:connector-curvature="0"
       sodipodi:nodetypes="cccccc" />
    <circle
       style="opacity:1;fill:url(#linearGradient4371);fill-opacity:1"
       id="path4363"
       cx="1401.1005"
       cy="-33.482033"
       r="187.20311" />
    <path
       id="path4138"
       d="m 1371.2566,-67.81488 -60.2178,0 c -11.0399,0 -19.9722,9.03265 -19.9722,20.07259 l -0.1004,120.43552 c 0,11.03992 9.0327,20.0726 20.0726,20.0726 l 160.5807,0 c 11.0399,0 20.0726,-9.03268 20.0726,-20.0726 l 0,-100.36295 c 0,-11.03991 -9.0327,-20.07257 -20.0726,-20.07257 l -80.2904,0 -20.0725,-20.07259 z"
       inkscape:connector-curvature="0"
       style="fill:#536dfe;fill-opacity:1" />
    <path
       style="opacity:1;fill:#4eb8ae;fill-opacity:1"
       inkscape:connector-curvature="0"
       d="m 1332.8457,-127.44648 c -5.2545,1.75073 -8.0734,7.46635 -6.3227,12.72083 l 25.4174,76.44469 c 1.7507,5.25448 7.4345,8.1371 12.6889,6.38638 l 57.3694,-19.11477 c 5.2545,-1.75074 8.1212,-7.48227 6.3704,-12.73674 l -19.0988,-57.32158 -38.2102,-19.11137 -38.2144,12.73256 z m 44.5786,22.2966 -8.7537,-26.2724 35.0261,17.51876 -26.2724,8.75364 z"
       id="path4215" />
    <path
       id="path4273"
       d="m 1385.2803,-88.07064 -5.7417,17.21759 11.3401,7.85304 -3.3065,4.77479 c -6.7215,-4.64753 -17.9055,-12.39955 -17.9055,-12.39955 l -9.1867,27.54813 60.6112,-20.1949 -35.8109,-24.7991 z"
       inkscape:connector-curvature="0"
       style="fill:#ffffff" />
    <circle
       style="opacity:1;fill:#ffffff;fill-opacity:1"
       id="path4277"
       cx="1322.6843"
       cy="353.3775"
       r="6.8536582"
       transform="matrix(0.94872472,-0.31610347,0.31610347,0.94872472,0,0)" />
    <path
       sodipodi:nodetypes="ccssssscc"
       style="fill:#657bfe;fill-opacity:1"
       inkscape:connector-curvature="0"
       d="m 1291.0666,-47.74229 -0.1004,120.43552 c 0,11.03992 9.0327,20.0726 20.0726,20.0726 l 160.5807,0 c 11.0399,0 20.0726,-9.03268 20.0726,-20.0726 l 0,-100.36295 c 0,-11.03991 -9.0327,-20.07257 -20.0726,-20.07257 l -80.2904,0 c -55.5746,0.5566 -61.206,0.86957 -100.2625,0 z"
       id="path4181" />
    <path
       style="fill:#ffffff"
       inkscape:connector-curvature="0"
       d="m 1400.4459,1.48559 -19.8463,26.46175 15.0832,20.11094 -8.4678,6.35082 c -8.944,-11.90779 -23.8156,-31.75411 -23.8156,-31.75411 l -31.7541,42.33881 116.4318,0 -47.6312,-63.50821 z"
       id="path4156" />
    <path
       style="fill:#fcbf4a;fill-opacity:1"
       inkscape:connector-curvature="0"
       d="m 1617.7926,-280.60705 c -3.3131,-16.80927 -18.076,-29.4284 -35.811,-29.4284 -14.0808,0 -26.3102,7.99049 -32.4005,19.6839 -14.6655,1.55912 -26.0665,13.98336 -26.0665,29.03861 0,16.12715 13.1063,29.23351 29.2335,29.23351 l 63.3392,0 c 13.4474,0 24.3613,-10.91384 24.3613,-24.36125 0,-12.86275 -9.9881,-23.28936 -22.656,-24.16637 z"
       id="path4502" />
    <path
       id="path4516"
       d="m 1551.2236,-260.09421 c -2.8552,-14.48592 -15.5776,-25.36085 -30.8613,-25.36085 -12.1346,0 -22.6736,6.88606 -27.9222,16.96322 -12.6384,1.34362 -22.4636,12.0506 -22.4636,25.02494 0,13.89808 11.2948,25.1929 25.1929,25.1929 l 54.5846,0 c 11.5887,0 20.994,-9.40535 20.994,-20.99408 0,-11.08488 -8.6075,-20.07034 -19.5244,-20.82613 z"
       inkscape:connector-curvature="0"
       style="opacity:1;fill:#fd9a1b;fill-opacity:1" />
    <rect
       style="opacity:1;fill:#fd9a1b;fill-opacity:1"
       id="rect4558"
       width="6.559835"
       height="135.63528"
       x="1180.144"
       y="-119.71311"
       ry="0" />
    <path
       style="fill:#fcbf4a;fill-opacity:1"
       inkscape:connector-curvature="0"
       d="m 1184.5014,-119.48199 c -1.1839,-9.53872 5.7784,-18.47425 15.3171,-19.65817 9.5387,-1.18393 18.4743,5.77839 19.6582,15.31711 l -34.9753,4.34106 z m 0,0 c 1.1839,9.53872 -5.7784,18.47425 -15.3171,19.65817 -9.5387,1.18393 -18.4743,-5.77839 -19.6582,-15.31711 l 34.9753,-4.34106 z m 0,0 c -9.5387,1.18393 -18.4743,-5.7784 -19.6582,-15.31711 -1.1839,-9.53872 5.7784,-18.47425 15.3171,-19.65818 l 4.3411,34.97529 z m 0,0 c 9.5387,-1.18393 18.4742,5.7784 19.6582,15.31711 1.1839,9.53872 -5.7784,18.47425 -15.3171,19.65818 l -4.3411,-34.97529 z"
       id="path4542" />
    <path
       style="opacity:1;fill:#fd9a1b;fill-opacity:1"
       inkscape:connector-curvature="0"
       d="m 1201.487,-222.49778 c -1.4588,-7.40109 -7.9589,-12.95728 -15.7676,-12.95728 -6.1997,0 -11.5843,3.51821 -14.2658,8.6668 -6.4572,0.68647 -11.4771,6.15684 -11.4771,12.78565 0,7.10076 5.7707,12.87147 12.8715,12.87147 l 27.8882,0 c 5.9208,0 10.7262,-4.80535 10.7262,-10.72622 0,-5.66345 -4.3978,-10.25427 -9.9754,-10.64042 z"
       id="path4570" />
    <path
       id="path4568"
       d="m 1235.8909,-214.62372 c -1.8155,-9.21106 -9.9052,-16.12602 -19.6236,-16.12602 -7.7159,0 -14.4173,4.37859 -17.7546,10.78628 -8.0363,0.85436 -14.2838,7.66253 -14.2838,15.91242 0,8.83727 7.1819,16.01922 16.0192,16.01922 l 34.7083,0 c 7.3689,0 13.3494,-5.9805 13.3494,-13.34934 0,-7.04846 -5.4733,-12.76198 -12.4149,-13.24256 z"
       inkscape:connector-curvature="0"
       style="fill:#fcbf4a;fill-opacity:1" />
    <circle
       r="243.71445"
       cy="804.62939"
       cx="254.06804"
       id="circle4167"
       style="opacity:0.05;fill:#161616;fill-opacity:1" />
    <circle
       style="opacity:1;fill:#536dfe;fill-opacity:1"
       id="path4163"
       cx="249.49429"
       cy="800.05573"
       r="241.40437" />
    <path
       style="opacity:0.2;fill:url(#linearGradient4682);fill-opacity:1"
       d="m 393.0386,755.87375 -60.47259,129.04526 -129.04526,39.68303 95.03408,77.56956 c 83.78506,-23.69815 145.04884,-75.97846 165.60874,-160.58831 z"
       id="rect4668"
       inkscape:connector-curvature="0"
       sodipodi:nodetypes="cccccc" />
    <g
       id="g4383"
       transform="matrix(0.5439409,0,0,0.5439409,158.08129,459.90607)">
      <g
         id="g4650"
         transform="matrix(1.8709201,0,0,1.8709201,-229.9112,-678.4902)">
        <path
           id="path4177"
           style="fill:#dbdbdb;fill-opacity:1"
           d="m 332.26763,641.4855 -146.90651,0 c -13.9303,0 -25.32724,11.39612 -25.32724,25.32969 l 0,134.23636 c 0,13.92787 11.39775,25.32887 25.32724,25.32887 l 3.75851,0 c 0.43527,6.29676 5.6251,11.28282 12.03515,11.28282 6.40599,0 11.59582,-4.98606 12.02458,-11.28282 l 91.27085,0 c 0.42875,6.29676 5.61858,11.28772 12.03109,11.28772 6.40272,0 11.58929,-4.99177 12.02457,-11.28772 l 3.76176,0 c 13.93683,0 25.32724,-11.401 25.32724,-25.32887 l 0,-134.23636 c 8.1e-4,-13.93357 -11.38961,-25.32969 -25.32724,-25.32969 z m -0.0132,79.40686 0,41.78277 c 0,3.41208 -2.76242,6.17775 -6.18263,6.17775 -3.4072,0 -6.17614,-2.76567 -6.17614,-6.17775 l 0,-41.78277 c -3.37865,-2.07773 -5.63245,-5.80199 -5.63245,-10.06177 0,-6.5242 5.28766,-11.81918 11.81592,-11.81918 6.52418,0 11.82242,5.29498 11.82242,11.81918 0,4.26059 -2.26439,7.98404 -5.64712,10.06177 z"
           inkscape:connector-curvature="0" />
        <path
           id="path4179"
           style="fill:#a8b6c0"
           d="m 240.66585,793.03653 c -32.64209,0 -59.09827,-26.46352 -59.09827,-59.10561 0,-32.63881 26.45618,-59.09743 59.09827,-59.09743 32.63882,0 59.095,26.45779 59.095,59.09743 0,32.64209 -26.45618,59.10561 -59.095,59.10561 z"
           inkscape:connector-curvature="0" />
        <g
           id="g4181"
           transform="matrix(0.81511473,0,0,0.81511473,55.037328,535.79692)">
          <path
             id="path4183"
             style="fill:#f7f7f7"
             d="m 228.421,198.458 c 1.718,0 3.107,-1.391 3.107,-3.1 l 0,-15.891 c 0,-1.716 -1.389,-3.107 -3.107,-3.107 -1.718,0 -3.107,1.391 -3.107,3.107 l 0,15.891 c 0,1.709 1.389,3.1 3.107,3.1 z"
             inkscape:connector-curvature="0" />
          <path
             id="path4185"
             style="fill:#f7f7f7"
             d="m 194.003,189.635 c -1.008,-1.389 -2.953,-1.693 -4.346,-0.682 -1.389,1.004 -1.697,2.949 -0.684,4.335 l 9.338,12.855 c 0.607,0.84 1.556,1.284 2.521,1.284 0.632,0 1.265,-0.19 1.82,-0.59 1.393,-1.01 1.697,-2.955 0.684,-4.342 l -9.333,-12.86 z"
             inkscape:connector-curvature="0" />
          <path
             id="path4187"
             style="fill:#f7f7f7"
             d="m 184.729,224.84 -15.107,-4.917 c -1.632,-0.521 -3.389,0.374 -3.919,1.996 -0.534,1.637 0.359,3.393 1.992,3.921 l 15.115,4.908 c 0.321,0.105 0.645,0.151 0.966,0.151 1.312,0 2.53,-0.833 2.949,-2.145 0.526,-1.63 -0.359,-3.388 -1.996,-3.914 z"
             inkscape:connector-curvature="0" />
          <path
             id="path4189"
             style="fill:#f7f7f7"
             d="m 182.81,253.853 -15.115,4.912 c -1.624,0.53 -2.525,2.289 -1.992,3.915 0.428,1.308 1.641,2.15 2.953,2.15 0.325,0 0.645,-0.049 0.966,-0.152 l 15.107,-4.908 c 1.637,-0.53 2.521,-2.288 1.995,-3.917 -0.525,-1.635 -2.281,-2.532 -3.914,-2 z"
             inkscape:connector-curvature="0" />
          <path
             id="path4191"
             style="fill:#f7f7f7"
             d="m 198.31,278.455 -9.338,12.857 c -1.013,1.387 -0.697,3.329 0.684,4.342 0.56,0.397 1.192,0.588 1.825,0.588 0.961,0 1.915,-0.44 2.521,-1.28 l 9.333,-12.848 c 1.013,-1.389 0.71,-3.342 -0.684,-4.344 -1.388,-1.012 -3.332,-0.702 -4.341,0.685 z"
             inkscape:connector-curvature="0" />
          <path
             id="path4193"
             style="fill:#f7f7f7"
             d="m 228.421,286.143 c -1.714,0 -3.107,1.391 -3.107,3.107 l 0,15.891 c 0,1.716 1.393,3.1 3.107,3.1 1.718,0 3.111,-1.385 3.111,-3.1 l -0.004,-15.891 c 0,-1.716 -1.389,-3.107 -3.107,-3.107 z"
             inkscape:connector-curvature="0" />
          <path
             id="path4195"
             style="fill:#f7f7f7"
             d="m 258.528,278.455 c -1.008,-1.387 -2.949,-1.697 -4.338,-0.686 -1.385,1.011 -1.701,2.949 -0.684,4.344 l 9.338,12.855 c 0.607,0.833 1.555,1.273 2.517,1.273 0.632,0 1.273,-0.19 1.82,-0.588 1.393,-1.015 1.701,-2.955 0.692,-4.342 l -9.345,-12.856 z"
             inkscape:connector-curvature="0" />
          <path
             id="path4197"
             style="fill:#f7f7f7"
             d="m 289.134,258.765 -15.103,-4.912 c -1.632,-0.532 -3.393,0.365 -3.919,1.993 -0.517,1.628 0.363,3.385 1.992,3.917 l 15.12,4.914 c 0.316,0.102 0.641,0.143 0.957,0.143 1.308,0 2.526,-0.833 2.949,-2.141 0.53,-1.634 -0.355,-3.39 -1.996,-3.914 z"
             inkscape:connector-curvature="0" />
          <path
             id="path4199"
             style="fill:#f7f7f7"
             d="m 273.07,230.9 c 0.32,0 0.645,-0.047 0.961,-0.151 l 15.103,-4.908 c 1.641,-0.534 2.525,-2.284 1.995,-3.93 -0.529,-1.628 -2.273,-2.515 -3.906,-1.987 l -15.12,4.908 c -1.628,0.53 -2.509,2.289 -1.992,3.917 0.43,1.311 1.647,2.151 2.959,2.151 z"
             inkscape:connector-curvature="0" />
          <path
             id="path4201"
             style="fill:#f7f7f7"
             d="m 256.011,207.421 c 0.961,0 1.906,-0.438 2.517,-1.278 l 9.338,-12.855 c 1.017,-1.387 0.701,-3.331 -0.692,-4.335 -1.389,-1.011 -3.321,-0.701 -4.329,0.686 l -9.338,12.857 c -1.009,1.387 -0.701,3.325 0.684,4.342 0.546,0.393 1.187,0.583 1.82,0.583 z"
             inkscape:connector-curvature="0" />
        </g>
        <polygon
           id="polygon4203"
           style="fill:#59616a"
           points="257.857,224.502 235.297,206.881 259.13,199.627 "
           transform="matrix(0.81511473,0,0,0.81511473,55.037328,535.79692)" />
        <path
           id="path4210"
           style="fill:url(#SVGID_1_)"
           d="m 240.66585,702.69736 c -17.25273,0 -31.24172,13.98248 -31.24172,31.23356 0,17.25517 13.98899,31.23684 31.24172,31.23684 17.24946,0 31.2352,-13.98248 31.2352,-31.23684 0,-17.25189 -13.98574,-31.23356 -31.2352,-31.23356 z"
           inkscape:connector-curvature="0" />
        <path
           id="path4212"
           style="fill:#ffffff"
           d="m 332.25376,720.89236 0,41.78277 c 0,3.41208 -2.76242,6.17775 -6.18263,6.17775 -3.4072,0 -6.17614,-2.76567 -6.17614,-6.17775 l 0,-41.78277 c -3.37865,-2.07773 -5.63244,-5.80199 -5.63244,-10.06177 0,-6.5242 5.28766,-11.81918 11.81592,-11.81918 6.52417,0 11.82241,5.29498 11.82241,11.81918 0,4.26059 -2.26439,7.98404 -5.64712,10.06177 z"
           inkscape:connector-curvature="0" />
      </g>
    </g>
    <path
       style="opacity:0.2;fill:url(#linearGradient4813);fill-opacity:1"
       d="m 175.35909,747.48969 39.85763,-60.06235 70.41938,76.21431 -86.21917,86.00875 -89.60662,-59.8967 z"
       id="rect4804"
       inkscape:connector-curvature="0"
       sodipodi:nodetypes="cccccc" />
    <g
       id="g4780"
       transform="matrix(1.1434362,0,0,1.1434362,-46.255223,-85.831)">
      <g
         transform="translate(-67.680213,34.345183)"
         id="g4757">
        <path
           style="fill:#739de2;fill-opacity:1"
           inkscape:connector-curvature="0"
           d="m 194.72673,652.65221 c -5.47314,1.17393 -8.93662,6.5912 -7.74724,12.04934 l 3.24371,14.8857 2.16248,9.92381 2.16247,9.92378 2.16248,9.92385 3.24371,14.8857 c 1.18936,5.4581 6.59905,8.97218 12.0722,7.79827 l 44.59372,-9.56483 44.59373,-9.56483 c 5.47512,-1.17434 8.93662,-6.5912 7.74726,-12.0493 l -7.56868,-34.73334 -2.16248,-9.9238 -3.24371,-14.88572 c -1.18937,-5.45813 -6.59707,-8.97264 -12.07219,-7.79829 l -44.59373,9.56483 -44.59373,9.56483 z"
           id="path4591" />
        <g
           id="g4568"
           transform="matrix(0.18517564,0.01929275,-0.01929275,0.18517564,195.91006,599.40414)">
          <g
             id="g4528">
            <path
               id="path4530"
               d="m 52.081,457.393 c 1.483,8.814 9.841,14.747 18.656,13.264 l 396.025,-66.696 c 8.815,-1.483 14.747,-9.842 13.265,-18.656 L 428.645,80.314 C 427.176,71.499 418.818,65.552 410.002,67.043 L 13.978,133.754 c -8.801,1.49 -14.748,9.841 -13.25,18.649 l 51.353,304.99 z"
               inkscape:connector-curvature="0"
               style="fill:#956759" />
            <path
               id="path4532"
               d="M 428.645,80.314 C 427.176,71.499 418.818,65.552 410.002,67.043 L 26.688,131.612 55.241,394.299 c 0,0 1.913,14.276 17.146,14.276 15.219,0 248.34,19.89 248.687,19.918 L 466.762,403.96 c 8.815,-1.483 14.747,-9.842 13.265,-18.656 L 428.645,80.314 Z"
               inkscape:connector-curvature="0"
               style="opacity:0.17000002;fill:#3c2415" />
            <g
               id="g4534">
              <path
                 id="path4536"
                 d="m 498.766,41.117 -424.328,0 c -7.041,0 -12.751,4.546 -12.751,10.16 l 0,338.275 c 0,5.62 5.71,10.167 12.751,10.167 l 341.497,0 95.569,-99.645 0,-248.798 c 0,-5.613 -5.697,-10.159 -12.738,-10.159 z"
                 inkscape:connector-curvature="0"
                 style="fill:#d19873" />
            </g>
            <polygon
               id="polygon4538"
               points="444.252,370.209 480.262,332.661 480.262,70.626 92.928,70.626 92.928,370.209 "
               style="fill:#e7bc95" />
            <path
               id="path4540"
               d="m 287.725,296.567 c 0,0 -51.576,-67.875 -194.797,-54.542 l 0,128.183 175.226,0.097 c -10e-4,10e-4 15.634,-47.721 19.571,-73.738 z"
               inkscape:connector-curvature="0"
               style="opacity:0.5;fill:#d19873" />
            <path
               id="path4542-0"
               d="m 480.262,143.041 c 0,0 -280.025,22.454 -288.744,227.265 l 221.783,0 66.961,-70.231 0,-157.034 z"
               inkscape:connector-curvature="0"
               style="fill:#f0d8ae" />
            <polygon
               id="polygon4544"
               points="511.504,300.074 415.935,399.719 415.935,300.074 "
               style="fill:#b47e69" />
            <polygon
               id="polygon4546"
               points="415.935,300.074 332.203,399.719 415.935,399.719 "
               style="opacity:0.5;fill:#b47e69" />
            <path
               id="path4548"
               d="m 303.65,117.891 c 0,15.773 12.779,28.553 28.553,28.553 15.759,0 28.539,-12.779 28.539,-28.553 0,-15.76 -12.78,-28.553 -28.539,-28.553 -15.773,0 -28.553,12.793 -28.553,28.553 z"
               inkscape:connector-curvature="0"
               style="fill:#f0d8ae" />
          </g>
          <g
             id="g4550" />
          <g
             id="g4552" />
          <g
             id="g4554" />
          <g
             id="g4556" />
          <g
             id="g4558" />
          <g
             id="g4560" />
        </g>
        <path
           inkscape:connector-curvature="0"
           style="fill:#8dacde;fill-opacity:1"
           d="m 290.10695,634.01587 c 0.59418,0.25711 1.16788,0.58102 1.71522,0.97368 L 251.26355,697.88205 188.34691,657.36 c 0.32884,-0.57097 0.70848,-1.09204 1.1319,-1.56342 -2.24166,2.36247 -3.31586,5.75551 -2.57946,9.16175 l 3.22465,14.91576 2.14987,9.94428 2.14973,9.94362 2.14972,9.94362 3.22466,14.91576 c 1.18238,5.46912 6.6015,8.98188 12.09349,7.79456 l 44.74728,-9.67398 44.74728,-9.67397 c 5.49397,-1.18775 8.97679,-6.62502 7.79441,-12.09415 l -7.5241,-34.803 -2.14987,-9.94428 -3.22466,-14.91576 c -0.73976,-3.4218 -3.13799,-6.07685 -6.17486,-7.29492 z"
           id="path4593" />
        <path
           style="fill:#739de2;fill-opacity:1"
           inkscape:connector-curvature="0"
           d="m 237.02112,680.34472 -32.75945,50.82967 c 2.18845,1.41084 4.884,2.03546 7.62999,1.4418 l 89.49454,-19.34794 c 2.7445,-0.59333 4.94131,-2.27565 6.35204,-4.46459 l -50.82944,-32.75848 -19.88768,4.29954 z"
           id="path4603" />
      </g>
    </g>
  </g>
</svg>
